<svg width="221" height="220" viewBox="0 0 221 220" fill="none" xmlns="http://www.w3.org/2000/svg">
<rect width="220" height="220" transform="translate(0.165527)" fill="#F6EEF6"/>
<path d="M47.7934 104.252V102.408L51.8429 101.823V76.4908L47.7934 75.9959V74.1511H56.1174L66.1961 98.8981L75.735 74.1511H84.5989V75.9959L80.4594 76.4908C80.4294 78.3806 80.3994 80.3004 80.3694 82.2501C80.3694 84.1999 80.3694 86.1496 80.3694 88.0994V90.3041C80.3694 92.2239 80.3694 94.1587 80.3694 96.1084C80.3994 98.0282 80.4294 99.963 80.4594 101.913L84.5989 102.408V104.252H72.3604V102.408L76.1399 101.913C76.1999 100.023 76.2299 98.1032 76.2299 96.1534C76.2299 94.2037 76.2299 92.2689 76.2299 90.3491V79.1455L66.4661 104.252H64.2164L53.9126 79.1455L54.1826 87.6495V101.823L57.8721 102.408V104.252H47.7934ZM104.478 104.702C103.398 104.702 102.498 104.387 101.778 103.758C101.058 103.128 100.609 102.288 100.429 101.238C99.1987 102.438 98.1188 103.338 97.1889 103.937C96.259 104.537 95.1342 104.837 93.8143 104.837C92.1645 104.837 90.7397 104.372 89.5399 103.443C88.37 102.483 87.7851 101.073 87.7851 99.2131C87.7851 98.3432 87.98 97.5333 88.37 96.7833C88.7899 96.0334 89.5399 95.2985 90.6197 94.5786C91.6996 93.8587 93.2444 93.1388 95.2542 92.4189C95.9441 92.1789 96.739 91.9239 97.6389 91.654C98.5388 91.384 99.4386 91.144 100.339 90.9341V89.8092C100.339 87.6195 100.009 86.1646 99.3487 85.4447C98.6887 84.7248 97.6089 84.3649 96.1091 84.3649C95.7791 84.3649 95.4041 84.3799 94.9842 84.4099C94.5942 84.4399 94.1593 84.5148 93.6793 84.6348L92.8245 87.5595C92.4045 88.9993 91.6246 89.7192 90.4847 89.7192C89.2249 89.7192 88.52 89.1043 88.37 87.8744C88.7899 86.1646 89.7798 84.8148 91.3396 83.8249C92.9294 82.805 94.8642 82.2951 97.1439 82.2951C99.5136 82.2951 101.268 82.895 102.408 84.0949C103.548 85.2648 104.118 87.2745 104.118 90.1242V99.708C104.118 100.668 104.268 101.358 104.568 101.778C104.868 102.168 105.258 102.363 105.738 102.363C106.128 102.363 106.458 102.273 106.728 102.093C106.998 101.913 107.253 101.673 107.493 101.373L108.393 102.363C107.853 103.233 107.253 103.847 106.593 104.207C105.963 104.537 105.258 104.702 104.478 104.702ZM91.7896 98.5381C91.7896 99.738 92.1345 100.593 92.8245 101.103C93.5144 101.613 94.3693 101.868 95.3891 101.868C95.8391 101.868 96.259 101.808 96.649 101.688C97.0689 101.568 97.5639 101.343 98.1338 101.013C98.7037 100.653 99.4386 100.143 100.339 99.483V92.5989C99.5586 92.8088 98.7937 93.0488 98.0438 93.3188C97.2939 93.5587 96.679 93.7687 96.199 93.9487C94.9092 94.4586 93.9493 94.9836 93.3194 95.5235C92.6895 96.0634 92.2695 96.5884 92.0595 97.0983C91.8796 97.6082 91.7896 98.0882 91.7896 98.5381ZM110.233 104.252V102.633L113.563 102.003C113.593 100.863 113.608 99.633 113.608 98.3132C113.638 96.9933 113.653 95.8235 113.653 94.8036V92.6439C113.653 91.414 113.638 90.3941 113.608 89.5842C113.608 88.7743 113.578 87.9194 113.518 87.0195L109.963 86.6146V85.0398L116.262 82.2951L116.937 82.7451L117.297 86.3446C118.407 85.1448 119.682 84.1699 121.122 83.42C122.562 82.6701 123.971 82.2951 125.351 82.2951C127.301 82.2951 128.741 82.955 129.671 84.2749C130.631 85.5647 131.111 87.6795 131.111 90.6191V94.8036C131.111 95.8235 131.111 96.9933 131.111 98.3132C131.141 99.633 131.171 100.863 131.201 102.003L134.35 102.633V104.252H123.911V102.633L127.241 102.003C127.271 100.893 127.286 99.678 127.286 98.3582C127.316 97.0083 127.331 95.8235 127.331 94.8036V90.9791C127.331 88.9093 127.031 87.4845 126.431 86.7046C125.861 85.9247 124.916 85.5347 123.596 85.5347C122.577 85.5347 121.587 85.7447 120.627 86.1646C119.667 86.5846 118.617 87.2745 117.477 88.2344V94.8036C117.477 95.7935 117.477 96.9633 117.477 98.3132C117.507 99.633 117.537 100.863 117.567 102.003L120.672 102.633V104.252H110.233ZM137.295 104.252V102.633L140.669 102.003C140.699 100.863 140.714 99.633 140.714 98.3132C140.744 96.9633 140.759 95.7935 140.759 94.8036V92.6888C140.759 91.459 140.744 90.4391 140.714 89.6292C140.714 88.7893 140.684 87.9194 140.624 87.0195L137.025 86.6146V85.0398L143.954 82.2951L144.629 82.7451L144.494 88.8643V94.8036C144.494 95.7935 144.494 96.9633 144.494 98.3132C144.524 99.633 144.554 100.863 144.584 102.003L147.734 102.633V104.252H137.295ZM142.604 77.3457C141.764 77.3457 141.044 77.0757 140.444 76.5358C139.875 75.9959 139.59 75.306 139.59 74.4661C139.59 73.5962 139.875 72.9063 140.444 72.3963C141.044 71.8564 141.764 71.5864 142.604 71.5864C143.444 71.5864 144.149 71.8564 144.719 72.3963C145.319 72.9063 145.619 73.5962 145.619 74.4661C145.619 75.306 145.319 75.9959 144.719 76.5358C144.149 77.0757 143.444 77.3457 142.604 77.3457ZM156.996 74.646C156.996 75.9359 156.711 77.1957 156.141 78.4256C155.571 79.6254 154.821 80.7353 153.891 81.7552C152.961 82.7451 151.926 83.6 150.787 84.3199L149.932 83.105C151.012 82.2351 151.896 81.4252 152.586 80.6753C153.276 79.8954 153.861 78.9055 154.341 77.7057L153.036 76.5358C152.376 75.9359 151.911 75.381 151.641 74.871C151.401 74.3311 151.281 73.7761 151.281 73.2062C151.281 72.3063 151.521 71.6464 152.001 71.2265C152.481 70.7765 153.126 70.5515 153.936 70.5515C154.386 70.5515 154.806 70.6265 155.196 70.7765C155.616 70.8965 156.006 71.1215 156.366 71.4514C156.786 72.4713 156.996 73.5362 156.996 74.646ZM164.053 104.837C162.793 104.837 161.638 104.687 160.588 104.387C159.538 104.117 158.458 103.698 157.348 103.128L157.168 98.1782H159.643L160.498 102.093C161.548 102.573 162.763 102.813 164.143 102.813C165.852 102.813 167.112 102.498 167.922 101.868C168.762 101.238 169.182 100.413 169.182 99.393C169.182 98.4331 168.837 97.6682 168.147 97.0983C167.457 96.4984 166.407 95.9585 164.997 95.4785L162.928 94.7136C161.278 94.1137 159.958 93.3338 158.968 92.3739C157.978 91.414 157.483 90.1692 157.483 88.6393C157.483 87.5295 157.783 86.4946 158.383 85.5347C158.983 84.5748 159.868 83.7949 161.038 83.195C162.208 82.5951 163.633 82.2951 165.312 82.2951C166.542 82.2951 167.652 82.4601 168.642 82.7901C169.662 83.09 170.652 83.54 171.612 84.1399L171.432 88.7293H169.092L168.372 85.1298C167.352 84.6198 166.317 84.3649 165.267 84.3649C163.888 84.3649 162.838 84.6498 162.118 85.2198C161.428 85.7597 161.083 86.4946 161.083 87.4245C161.083 88.4144 161.383 89.1643 161.983 89.6742C162.613 90.1842 163.693 90.7241 165.222 91.294L166.617 91.789C168.867 92.6289 170.457 93.5887 171.387 94.6686C172.347 95.7485 172.826 96.9933 172.826 98.4032C172.826 99.543 172.497 100.608 171.837 101.598C171.177 102.558 170.202 103.338 168.912 103.937C167.622 104.537 166.002 104.837 164.053 104.837ZM68.194 149.252V147.633L71.5686 147.048C71.5986 145.908 71.6136 144.678 71.6136 143.358C71.6436 142.008 71.6586 140.823 71.6586 139.804V120.051L67.969 119.601V118.026L74.8532 116.001L75.4831 116.361L75.3031 122.751V130.76C76.383 129.56 77.4929 128.69 78.6327 128.15C79.8026 127.58 81.0024 127.295 82.2323 127.295C83.8221 127.295 85.2619 127.73 86.5518 128.6C87.8416 129.47 88.8615 130.73 89.6114 132.379C90.3913 134.029 90.7812 136.024 90.7812 138.364C90.7812 140.673 90.3763 142.698 89.5664 144.438C88.7565 146.148 87.6466 147.483 86.2368 148.443C84.857 149.372 83.2822 149.837 81.5124 149.837C80.4625 149.837 79.4126 149.612 78.3628 149.162C77.3129 148.713 76.293 147.873 75.3031 146.643L74.9432 149.702L68.194 149.252ZM81.0174 129.86C80.3275 129.86 79.5326 130.04 78.6327 130.4C77.7328 130.76 76.668 131.45 75.4381 132.469V144.798C76.368 145.668 77.2829 146.298 78.1828 146.688C79.0827 147.078 79.9526 147.273 80.7925 147.273C82.3823 147.273 83.7621 146.583 84.932 145.203C86.1318 143.793 86.7317 141.633 86.7317 138.724C86.7317 135.844 86.1918 133.654 85.1119 132.155C84.0621 130.625 82.6972 129.86 81.0174 129.86ZM93.4981 149.252V147.633L97.0977 147.003C97.1277 145.773 97.1427 144.573 97.1427 143.403C97.1727 142.203 97.1877 141.003 97.1877 139.804V120.051L93.4981 119.601V118.026L100.517 116.001L101.147 116.361L100.967 122.751V139.804C100.967 141.003 100.967 142.203 100.967 143.403C100.997 144.603 101.027 145.803 101.057 147.003L104.657 147.633V149.252H93.4981ZM118.103 149.837C116.364 149.837 114.699 149.432 113.109 148.623C111.549 147.783 110.274 146.538 109.285 144.888C108.295 143.208 107.8 141.138 107.8 138.679C107.8 136.189 108.295 134.104 109.285 132.424C110.274 130.715 111.549 129.44 113.109 128.6C114.699 127.73 116.364 127.295 118.103 127.295C119.843 127.295 121.493 127.73 123.053 128.6C124.643 129.44 125.933 130.715 126.922 132.424C127.942 134.104 128.452 136.189 128.452 138.679C128.452 141.138 127.942 143.208 126.922 144.888C125.933 146.538 124.643 147.783 123.053 148.623C121.493 149.432 119.843 149.837 118.103 149.837ZM118.103 147.813C120.053 147.813 121.553 147.048 122.603 145.518C123.653 143.958 124.178 141.678 124.178 138.679C124.178 135.649 123.653 133.339 122.603 131.75C121.553 130.16 120.053 129.365 118.103 129.365C116.154 129.365 114.654 130.16 113.604 131.75C112.584 133.339 112.074 135.649 112.074 138.679C112.074 141.678 112.584 143.958 113.604 145.518C114.654 147.048 116.154 147.813 118.103 147.813ZM141.133 140.254C142.573 140.254 143.698 139.714 144.508 138.634C145.317 137.554 145.722 136.189 145.722 134.539C145.722 132.949 145.332 131.66 144.553 130.67C143.803 129.65 142.723 129.14 141.313 129.14C139.903 129.14 138.793 129.665 137.983 130.715C137.173 131.735 136.768 133.069 136.768 134.719C136.768 136.369 137.143 137.704 137.893 138.724C138.673 139.744 139.753 140.254 141.133 140.254ZM141.223 142.053C140.053 142.053 138.943 141.888 137.893 141.558C137.143 142.518 136.768 143.478 136.768 144.438C136.768 145.038 136.933 145.518 137.263 145.878C137.623 146.238 138.328 146.418 139.378 146.418H145.272C147.762 146.418 149.592 146.928 150.762 147.948C151.932 148.967 152.517 150.392 152.517 152.222C152.517 153.512 152.097 154.757 151.257 155.957C150.447 157.156 149.217 158.131 147.567 158.881C145.917 159.631 143.863 160.006 141.403 160.006C138.133 160.006 135.764 159.496 134.294 158.476C132.824 157.456 132.089 156.152 132.089 154.562C132.089 153.602 132.404 152.702 133.034 151.862C133.694 151.052 134.849 150.242 136.498 149.432C134.519 148.892 133.529 147.753 133.529 146.013C133.529 145.293 133.754 144.543 134.204 143.763C134.684 142.983 135.479 142.068 136.588 141.018C135.509 140.419 134.654 139.594 134.024 138.544C133.424 137.494 133.124 136.204 133.124 134.674C133.124 132.305 133.889 130.49 135.419 129.23C136.978 127.94 138.928 127.295 141.268 127.295C143.638 127.295 145.542 127.88 146.982 129.05L152.067 127.295L152.742 127.745V130.58H148.332C149.022 131.69 149.367 133.054 149.367 134.674C149.367 137.044 148.587 138.874 147.027 140.164C145.497 141.423 143.563 142.053 141.223 142.053ZM135.779 153.842C135.779 155.312 136.304 156.362 137.353 156.992C138.403 157.621 139.813 157.936 141.583 157.936C144.043 157.936 145.917 157.486 147.207 156.587C148.497 155.717 149.142 154.652 149.142 153.392C149.142 152.402 148.797 151.562 148.107 150.872C147.417 150.212 146.262 149.882 144.642 149.882H139.378C139.078 149.882 138.763 149.867 138.433 149.837C138.133 149.837 137.833 149.822 137.533 149.792C136.903 150.452 136.453 151.097 136.184 151.727C135.914 152.387 135.779 153.092 135.779 153.842Z" fill="#11090C"/>
</svg>
