<svg width="133" height="133" viewBox="0 0 133 133" fill="none" xmlns="http://www.w3.org/2000/svg">
<path d="M116.375 70.8779C115.503 80.311 111.963 89.3007 106.169 96.7951C100.374 104.29 92.5653 109.979 83.6555 113.197C74.7457 116.415 65.1035 117.03 55.8574 114.968C46.6112 112.906 38.1434 108.254 31.4448 101.555C24.7462 94.8567 20.0939 86.3889 18.0322 77.1428C15.9705 67.8966 16.5848 58.2545 19.803 49.3446C23.0213 40.4348 28.7106 32.6258 36.205 26.8314C43.6995 21.0369 52.6892 17.4967 62.1222 16.625C56.5995 24.0966 53.9419 33.3024 54.6328 42.5678C55.3238 51.8333 59.3174 60.543 65.8872 67.1129C72.4571 73.6828 81.1668 77.6763 90.4323 78.3673C99.6978 79.0583 108.903 76.4007 116.375 70.8779Z" stroke="#222222" stroke-width="11.0833" stroke-linecap="round" stroke-linejoin="round"/>
</svg>
